<svg xmlns="http://www.w3.org/2000/svg" viewBox="0 0 32 32" role="img" aria-labelledby="title desc" shape-rendering="crispEdges">
  <title id="title">cc-buddy-forge pixel mascot</title>
  <desc id="desc">A pixel-art buddy mascot forging salt with a hammer.</desc>
  <defs>
    <style>
      .o { fill: #1f2430; }
      .c { fill: #7ad3ff; }
      .s { fill: #4594c8; }
      .w { fill: #f7fbff; }
      .f { fill: #ffb347; }
      .d { fill: #e06a2d; }
      .h { fill: #8b5a2b; }
      .y { fill: #ffe08a; }
      .p { fill: #f28f8f; }
      .m { fill: #20242f; fill-opacity: 0.16; }
    </style>
  </defs>

  <rect class="m" x="8" y="28" width="15" height="1" />

  <rect class="y" x="27" y="4" width="1" height="1" />
  <rect class="y" x="26" y="5" width="3" height="1" />
  <rect class="f" x="27" y="6" width="1" height="1" />
  <rect class="y" x="26" y="7" width="3" height="1" />
  <rect class="y" x="27" y="8" width="1" height="1" />

  <rect class="o" x="9" y="5" width="4" height="1" />
  <rect class="o" x="20" y="5" width="4" height="1" />
  <rect class="o" x="8" y="6" width="1" height="1" />
  <rect class="o" x="13" y="6" width="1" height="1" />
  <rect class="o" x="19" y="6" width="1" height="1" />
  <rect class="o" x="24" y="6" width="1" height="1" />
  <rect class="p" x="10" y="6" width="2" height="1" />
  <rect class="p" x="21" y="6" width="2" height="1" />

  <rect class="o" x="10" y="6" width="12" height="1" />
  <rect class="o" x="9" y="7" width="14" height="1" />
  <rect class="o" x="8" y="8" width="1" height="8" />
  <rect class="o" x="23" y="8" width="1" height="8" />
  <rect class="o" x="9" y="16" width="14" height="1" />
  <rect class="o" x="10" y="17" width="12" height="1" />

  <rect class="c" x="9" y="8" width="14" height="8" />
  <rect class="s" x="16" y="11" width="6" height="5" />
  <rect class="w" x="12" y="10" width="2" height="2" />
  <rect class="w" x="18" y="10" width="2" height="2" />
  <rect class="o" x="13" y="11" width="1" height="1" />
  <rect class="o" x="18" y="11" width="1" height="1" />
  <rect class="p" x="11" y="13" width="1" height="1" />
  <rect class="p" x="20" y="13" width="1" height="1" />
  <rect class="d" x="15" y="13" width="2" height="1" />
  <rect class="o" x="14" y="14" width="4" height="1" />

  <rect class="o" x="12" y="18" width="8" height="1" />
  <rect class="o" x="10" y="19" width="1" height="6" />
  <rect class="o" x="21" y="19" width="1" height="6" />
  <rect class="o" x="12" y="25" width="8" height="1" />
  <rect class="c" x="11" y="19" width="10" height="6" />
  <rect class="s" x="16" y="22" width="4" height="3" />
  <rect class="f" x="15" y="21" width="2" height="2" />
  <rect class="o" x="9" y="20" width="1" height="3" />
  <rect class="c" x="10" y="20" width="1" height="3" />
  <rect class="o" x="22" y="20" width="1" height="3" />
  <rect class="c" x="21" y="20" width="1" height="3" />

  <rect class="o" x="12" y="26" width="3" height="1" />
  <rect class="o" x="17" y="26" width="3" height="1" />

  <rect class="o" x="23" y="12" width="6" height="1" />
  <rect class="o" x="22" y="13" width="1" height="3" />
  <rect class="o" x="29" y="13" width="1" height="3" />
  <rect class="o" x="23" y="16" width="6" height="1" />
  <rect class="f" x="23" y="13" width="6" height="3" />
  <rect class="d" x="26" y="14" width="2" height="2" />
  <rect class="o" x="24" y="17" width="3" height="9" />
  <rect class="h" x="25" y="17" width="1" height="9" />
</svg>
